# xmcd
#
# Track frame offsets:
#	150
#	12002
#	29467
#	46742
#	60560
#	78530
#	98722
#	119330
#	128380
#	145332
#
# Disc length: 2089
#
# Revision: 5
# Processed by: cddbd v1.5.1PL0 Copyright (c) Steve Scherf et al.
# Submitted via: ExactAudioCopy v0.95a5
# Normalized: r4:TDELIM( - )
#
DISCID=7608270a
DTITLE=Various Artist - A Celebration of Blues, Great Swing Blues
DYEAR=1997
DGENRE=Blues
TTITLE0=Anson Funderburgh and the Rockets - Meanstreak
TTITLE1=William Clarke - Your Love Is Real
TTITLE2=Long John Baldry - Easy Street
TTITLE3=Mitch Woods and His Rocket 88s - Solid Gold Cadillac
TTITLE4=Little Charlie and the Nightcats - Sure Seems Strange
TTITLE5=Tommy Castro - Can't Quit The Blues
TTITLE6=Jay McShann - Confessin' The Blues
TTITLE7=The Chris Cain Band - Can't Buy A Break
TTITLE8=Big Joe and the Dynaflows - Layin' In The Alley
TTITLE9=Greg Piccolo w Duke Robillard - It's Obdacious
EXTD=
EXTT0=
EXTT1=
EXTT2=
EXTT3=
EXTT4=
EXTT5=
EXTT6=
EXTT7=
EXTT8=
EXTT9=
PLAYORDER=
